<?xml version="1.0" encoding="UTF-8" standalone="no"?><!DOCTYPE svg PUBLIC "-//W3C//DTD SVG 1.1//EN" "http://www.w3.org/Graphics/SVG/1.1/DTD/svg11.dtd"><svg width="100%" height="100%" viewBox="0 0 1000 1000" version="1.1" xmlns="http://www.w3.org/2000/svg" xmlns:xlink="http://www.w3.org/1999/xlink" xml:space="preserve" xmlns:serif="http://www.serif.com/" style="fill-rule:evenodd;clip-rule:evenodd;stroke-linejoin:round;stroke-miterlimit:2;"><path d="M501.826,869.624c-3.658,0.102 -7.351,0.154 -11.077,0.154c-81.409,0 -143.7,-23.965 -186.871,-71.894c-43.172,-47.929 -64.757,-116.828 -64.757,-206.695l0,-460.966l214.624,0l0,460.438c0,44.053 15.683,66.079 47.048,66.079c0.346,0 0.691,-0.003 1.033,-0.009l0,212.893Zm44.429,-459.398l0,-280.003l214.624,0l0,221.598c-18.711,-5.871 -38.817,-8.806 -60.316,-8.806c-29.301,0 -57.71,5.988 -85.228,17.963c-27.517,11.975 -50.449,28.282 -68.794,48.92c-0.096,0.109 -0.191,0.218 -0.287,0.328Zm201.066,284.781c-12.041,38.992 -32.103,72.58 -60.186,100.763c-9.446,9.479 -19.493,18.048 -30.142,25.706l0,-284.691c0,-30.065 12.103,-45.098 36.308,-45.098c23.95,0 35.926,10.956 35.926,32.868c0,23.95 -15.67,35.926 -47.009,35.926l0,136.823l23.696,0.382c14.719,0 28.521,-0.893 41.407,-2.679Z"/></svg>